# xmcd
#
# Track frame offsets: 
#        151
#        21629
#        36161
#        55525
#        86556
#        99552
#        132121
#        142617
#        171071
#        198797
#        240829
#
# Disc length: 3214 seconds
#
# Revision: 0
# Processed by: cddbd v1.5PL3 Copyright (c) Steve Scherf et al.
# Submitted via: ExactAudioCopy v0.95a5
#
DISCID=7f0c8c0b
DTITLE=Gary More - Back to the blues
DYEAR=2001
DGENRE=Blues
TTITLE0=Enough of the blues
TTITLE1=You upset me baby
TTITLE2=Cold black night
TTITLE3=Stormy monday
TTITLE4=Ain´t got you
TTITLE5=Picture of the moon
TTITLE6=Looking back
TTITLE7=The Prophet
TTITLE8=How many lies
TTITLE9=Drowning in Tears
TTITLE10=Bonus Track
EXTD=
EXTT0=
EXTT1=
EXTT2=
EXTT3=
EXTT4=
EXTT5=
EXTT6=
EXTT7=
EXTT8=
EXTT9=
EXTT10=
PLAYORDER=
